<svg width="20" height="16" viewBox="0 0 20 16" fill="none" xmlns="http://www.w3.org/2000/svg">
<g id="briefcase.fill">
<g id="Group">
<path id="Vector" d="M8.75214 10.4596C8.19059 10.4596 7.86166 10.1435 7.86166 9.57624V8.9198C5.50313 8.7577 3.15262 8.27146 0.713867 7.33943V6.00226C3.71417 7.33134 6.72251 7.8014 9.99558 7.8014C13.2767 7.8014 16.285 7.33134 19.2853 6.00226V7.33943C16.8465 8.27146 14.496 8.7577 12.1375 8.9198V9.57624C12.1375 10.1435 11.8086 10.4596 11.247 10.4596H8.75214ZM3.19273 15.849H16.8064C18.467 15.849 19.2853 15.0386 19.2853 13.3772V5.49168C19.2853 3.8303 18.467 3.01987 16.8064 3.01987H3.19273C1.54015 3.01987 0.713867 3.8303 0.713867 5.49168V13.3772C0.713867 15.0386 1.54015 15.849 3.19273 15.849ZM5.92831 3.72494H7.17175V2.29048C7.17175 1.67455 7.53275 1.32607 8.15848 1.32607H11.8407C12.4664 1.32607 12.8194 1.67455 12.8194 2.29048V3.70873H14.0628V2.37963C14.0628 0.856017 13.2686 0.142838 11.8166 0.142838H8.1745C6.80273 0.142838 5.92831 0.856017 5.92831 2.37963V3.72494Z" fill="#B3B3B3"/>
</g>
</g>
</svg>
